<?xml version="1.0" encoding="UTF-8" standalone="no"?>
<svg
   xmlns:dc="http://purl.org/dc/elements/1.1/"
   xmlns:cc="http://creativecommons.org/ns#"
   xmlns:rdf="http://www.w3.org/1999/02/22-rdf-syntax-ns#"
   xmlns:svg="http://www.w3.org/2000/svg"
   xmlns="http://www.w3.org/2000/svg"
   xmlns:sodipodi="http://sodipodi.sourceforge.net/DTD/sodipodi-0.dtd"
   xmlns:inkscape="http://www.inkscape.org/namespaces/inkscape"
   viewBox="0 0 42.5 42.500001"
   height="42.5"
   width="42.5"
   xml:space="preserve"
   id="svg2"
   version="1.1"
   sodipodi:docname="arcade_Logo.svg"
   inkscape:version="0.92.5 (2060ec1f9f, 2020-04-08)"><sodipodi:namedview
     pagecolor="#ffffff"
     bordercolor="#666666"
     borderopacity="1"
     objecttolerance="10"
     gridtolerance="10"
     guidetolerance="10"
     inkscape:pageopacity="0"
     inkscape:pageshadow="2"
     inkscape:window-width="1363"
     inkscape:window-height="1403"
     id="namedview8"
     showgrid="false"
     inkscape:zoom="16"
     inkscape:cx="18.776773"
     inkscape:cy="17.188746"
     inkscape:window-x="1980"
     inkscape:window-y="2"
     inkscape:window-maximized="0"
     inkscape:current-layer="svg2" /><metadata
     id="metadata8"><rdf:RDF><cc:Work
         rdf:about=""><dc:format>image/svg+xml</dc:format><dc:type
           rdf:resource="http://purl.org/dc/dcmitype/StillImage" /><dc:title></dc:title></cc:Work></rdf:RDF></metadata><defs
     id="defs6" /><g
     transform="matrix(1.3333333,0,0,-1.3333333,0,42.783669)"
     id="g10"><g
       transform="scale(0.1)"
       id="g12"><path
         id="path14"
         style="fill:#FFFFFF;fill-opacity:1;fill-rule:nonzero;stroke:none"
         d="m 159.875,3.0186297 h -1.641 C 71.203006,3.4561298 0.78500644,74.15923 0.78500644,161.29162 v 0 c 0,87.407 70.86329956,158.274 158.26999356,158.274 60.253,0 112.628,-33.68 139.371,-83.234 -11.996,9.917 -29.629,15 -52.559,15 -10.437,0 -21.707,-1.368 -33.449,-4.047 -11.754,-2.7 -22.746,-6.692 -32.664,-11.86 l -1.449,-0.758 13.828,-30.585 1.586,0.746 c 7.785,3.668 15.968,6.886 24.351,9.574 8.305,2.664 17.11,4.019 26.16,4.019 10.809,0 18.836,-2.711 23.879,-8.054 5.074,-5.379 7.641,-13.711 7.641,-24.778 v -7.976 l -29.61,-0.934 c -28.582,-0.89 -50.203,-6.215 -64.281,-15.859 -14.293,-9.789 -21.527,-24.485 -21.527,-43.653 0,-17.97609 5.211,-32.12849 15.504,-42.01129 10.269,-9.8828 24.691,-14.8828 42.855,-14.8828 14.028,0 25.715,2.043 34.77,6.1211 8.672,3.9063 17.387,11.1836 25.898,21.6406 l 6.469,-21.2187 C 257.117,28.35453 211.492,3.2803487 159.875,3.0186297 m 70.93,90.1523003 c -9.122,0 -15.997,2.0821 -20.45,6.1836 -4.468,4.1291 -6.644,9.84409 -6.644,17.48009 0,10.614 3.789,18.243 11.582,23.368 7.949,5.195 20.953,8.156 38.68,8.796 l 21.445,0.907 v -13.922 c 0,-13.516 -4.086,-24.121 -12.145,-31.55099 -8.078,-7.4609 -19.004,-11.2617 -32.468,-11.2617"
         inkscape:connector-curvature="0"
         sodipodi:nodetypes="ccccscsccccccscscccscsccccccscccscc" /></g></g></svg>